<svg width="20" height="20" viewBox="0 0 20 20" fill="none" xmlns="http://www.w3.org/2000/svg">
<path d="M14.5 11C16.9853 11 19 13.0147 19 15.5C19 17.9853 16.9853 20 14.5 20C12.0147 20 10 17.9853 10 15.5C10 13.0147 12.0147 11 14.5 11ZM11.9551 13.916C11.6682 14.376 11.5 14.9179 11.5 15.5C11.5 17.1569 12.8431 18.5 14.5 18.5C15.082 18.5 15.6231 18.3308 16.083 18.0439L11.9551 13.916ZM14.5 12.5C13.9698 12.5 13.4723 12.6385 13.04 12.8799L17.1191 16.959C17.3604 16.5268 17.5 16.0301 17.5 15.5C17.5 13.8431 16.1569 12.5 14.5 12.5ZM8 14H2V12H8V14ZM17 10H2V8H17V10ZM17 6H2V4H17V6Z" fill="#99A1AF"/>
</svg>
