<svg width="20" height="20" viewBox="0 0 20 20" fill="none" xmlns="http://www.w3.org/2000/svg">
<path d="M5 10H5.00833M15 10H15.0083M3.33333 5H16.6667C17.5871 5 18.3333 5.74619 18.3333 6.66667V13.3333C18.3333 14.2538 17.5871 15 16.6667 15H3.33333C2.41286 15 1.66666 14.2538 1.66666 13.3333V6.66667C1.66666 5.74619 2.41286 5 3.33333 5ZM11.6667 10C11.6667 10.9205 10.9205 11.6667 10 11.6667C9.07952 11.6667 8.33333 10.9205 8.33333 10C8.33333 9.07953 9.07952 8.33333 10 8.33333C10.9205 8.33333 11.6667 9.07953 11.6667 10Z" stroke="#99A1AF" stroke-width="1.8" stroke-linecap="round" stroke-linejoin="round"/>
</svg>
