<svg width="20" height="20" viewBox="0 0 20 20" fill="none" xmlns="http://www.w3.org/2000/svg">
<path d="M11.6667 1.6665V4.99984C11.6667 5.44186 11.8423 5.86579 12.1548 6.17835C12.4674 6.49091 12.8913 6.6665 13.3333 6.6665H16.6667M13.3333 18.3332H15C15.442 18.3332 15.866 18.1576 16.1785 17.845C16.4911 17.5325 16.6667 17.1085 16.6667 16.6665V5.83317L12.5 1.6665H5C4.55797 1.6665 4.13405 1.8421 3.82149 2.15466C3.50893 2.46722 3.33333 2.89114 3.33333 3.33317V6.24984M3.34746 9.59314C2.83777 10.0455 2.42592 10.5972 2.1372 11.2145C1.84848 11.8317 1.68899 12.5015 1.66852 13.1827C1.64804 13.8638 1.76702 14.5419 2.01815 15.1754C2.26927 15.8089 2.64724 16.3844 3.12885 16.8665C3.61045 17.3486 4.18553 17.7272 4.81875 17.979C5.45198 18.2308 6.13 18.3505 6.81116 18.3308C7.49233 18.311 8.16227 18.1522 8.77985 17.8642C9.39742 17.5761 9.94959 17.1648 10.4025 16.6556M7.5 13.3331C7.27899 13.3331 7.06702 13.2453 6.91074 13.089C6.75446 12.9327 6.66667 12.7208 6.66667 12.4998V9.16644C6.66667 8.70644 7.04167 8.32644 7.49583 8.40227C8.52109 8.57467 9.46711 9.06237 10.2023 9.79751C10.9374 10.5327 11.4251 11.4787 11.5975 12.5039C11.6733 12.9573 11.2933 13.3331 10.8333 13.3331H7.5Z" stroke="#99A1AF" stroke-width="2" stroke-linecap="round" stroke-linejoin="round"/>
</svg>
