<svg width="20" height="20" viewBox="0 0 20 20" fill="none" xmlns="http://www.w3.org/2000/svg">
<g clip-path="url(#clip0_2115_1373)">
<path d="M9.16666 12.4998H10.8333C11.2754 12.4998 11.6993 12.3242 12.0118 12.0117C12.3244 11.6991 12.5 11.2752 12.5 10.8332C12.5 10.3911 12.3244 9.96722 12.0118 9.65466C11.6993 9.3421 11.2754 9.1665 10.8333 9.1665H8.33333C7.83333 9.1665 7.41666 9.33317 7.16666 9.6665L2.5 14.1665M5.83333 17.4999L7.16666 16.3332C7.41666 15.9999 7.83333 15.8332 8.33333 15.8332H11.6667C12.5833 15.8332 13.4167 15.4999 14 14.8332L17.8333 11.1665C18.1549 10.8626 18.3426 10.4434 18.3551 10.0012C18.3676 9.55889 18.2039 9.12977 17.9 8.80819C17.5961 8.48662 17.1769 8.29894 16.7346 8.28643C16.2924 8.27393 15.8632 8.43763 15.5417 8.74153L12.0417 11.9915M1.66666 13.3332L6.66666 18.3332M15.7501 7.49992C15.7501 8.83461 14.6681 9.91659 13.3334 9.91659C11.9987 9.91659 10.9167 8.83461 10.9167 7.49992C10.9167 6.16523 11.9987 5.08325 13.3334 5.08325C14.6681 5.08325 15.7501 6.16523 15.7501 7.49992ZM7.5 4.1665C7.5 5.54722 6.38071 6.6665 5 6.6665C3.61929 6.6665 2.5 5.54722 2.5 4.1665C2.5 2.78579 3.61929 1.6665 5 1.6665C6.38071 1.6665 7.5 2.78579 7.5 4.1665Z" stroke="#99A1AF" stroke-width="2" stroke-linecap="round" stroke-linejoin="round"/>
</g>
<defs>
<clipPath id="clip0_2115_1373">
<rect width="20" height="20" fill="white"/>
</clipPath>
</defs>
</svg>
