<svg width="160" height="72" viewBox="0 0 160 72" fill="none" xmlns="http://www.w3.org/2000/svg">
<rect x="11" y="16" width="40" height="40" rx="20" fill="#155DFC"/>
<mask id="mask0_1995_1251" style="mask-type:alpha" maskUnits="userSpaceOnUse" x="17" y="20" width="28" height="32">
<path d="M31 20L44.8564 28V44L31 52L17.1436 44V28L31 20Z" fill="#171A20"/>
</mask>
<g mask="url(#mask0_1995_1251)">
<rect x="14" y="29.2246" width="24.0488" height="6" transform="rotate(-30 14 29.2246)" fill="white"/>
<rect x="25" y="49.3447" width="24.2888" height="6" transform="rotate(-30 25 49.3447)" fill="white"/>
<rect x="14" y="42.668" width="36.9366" height="6" transform="rotate(-30 14 42.668)" fill="white"/>
</g>
<path d="M61.7541 35.5V21.32H65.3341V35.5H61.7541ZM64.5941 35.5V32.48H72.2741V35.5H64.5941ZM64.5941 29.74V26.8H71.5541V29.74H64.5941ZM64.5941 24.34V21.32H72.1541V24.34H64.5941ZM78.3816 35.72C77.195 35.72 76.1616 35.54 75.2816 35.18C74.415 34.82 73.6216 34.2533 72.9016 33.48L75.1616 31.2C75.655 31.72 76.1816 32.12 76.7416 32.4C77.3016 32.6667 77.935 32.8 78.6416 32.8C79.2416 32.8 79.7016 32.7 80.0216 32.5C80.355 32.2867 80.5216 32 80.5216 31.64C80.5216 31.3067 80.4016 31.0333 80.1616 30.82C79.9216 30.5933 79.6016 30.4 79.2016 30.24C78.815 30.0667 78.3816 29.9067 77.9016 29.76C77.435 29.6 76.9616 29.4133 76.4816 29.2C76.015 28.9733 75.5816 28.7 75.1816 28.38C74.795 28.06 74.4816 27.66 74.2416 27.18C74.0016 26.7 73.8816 26.1067 73.8816 25.4C73.8816 24.4933 74.095 23.72 74.5216 23.08C74.9616 22.44 75.5683 21.9467 76.3416 21.6C77.115 21.2533 78.015 21.08 79.0416 21.08C80.0683 21.08 81.015 21.2533 81.8816 21.6C82.7483 21.9467 83.4616 22.4267 84.0216 23.04L81.7416 25.3C81.315 24.8733 80.8816 24.5533 80.4416 24.34C80.0016 24.1267 79.5216 24.02 79.0016 24.02C78.5083 24.02 78.1216 24.1067 77.8416 24.28C77.5616 24.4533 77.4216 24.7 77.4216 25.02C77.4216 25.34 77.5416 25.6 77.7816 25.8C78.0216 26 78.335 26.18 78.7216 26.34C79.1216 26.4867 79.555 26.64 80.0216 26.8C80.5016 26.96 80.975 27.1467 81.4416 27.36C81.9083 27.5733 82.335 27.8467 82.7216 28.18C83.1216 28.5133 83.4416 28.9333 83.6816 29.44C83.9216 29.9467 84.0416 30.56 84.0416 31.28C84.0416 32.6933 83.5416 33.7867 82.5416 34.56C81.555 35.3333 80.1683 35.72 78.3816 35.72ZM92.8529 35.72C91.7729 35.72 90.7729 35.54 89.8529 35.18C88.9329 34.8067 88.1262 34.2933 87.4329 33.64C86.7529 32.9733 86.2196 32.1933 85.8329 31.3C85.4596 30.4067 85.2729 29.44 85.2729 28.4C85.2729 27.3467 85.4596 26.38 85.8329 25.5C86.2196 24.6067 86.7529 23.8333 87.4329 23.18C88.1262 22.5267 88.9262 22.0133 89.8329 21.64C90.7529 21.2667 91.7462 21.08 92.8129 21.08C93.9329 21.08 94.9396 21.26 95.8329 21.62C96.7262 21.9667 97.5129 22.4533 98.1929 23.08L95.7929 25.48C95.4596 25.1067 95.0462 24.8133 94.5529 24.6C94.0596 24.3867 93.4796 24.28 92.8129 24.28C92.2396 24.28 91.7129 24.3733 91.2329 24.56C90.7662 24.7467 90.3596 25.0267 90.0129 25.4C89.6662 25.76 89.3929 26.1933 89.1929 26.7C89.0062 27.2067 88.9129 27.7733 88.9129 28.4C88.9129 29.0267 89.0062 29.5933 89.1929 30.1C89.3929 30.6067 89.6662 31.0467 90.0129 31.42C90.3596 31.78 90.7662 32.06 91.2329 32.26C91.7129 32.4467 92.2396 32.54 92.8129 32.54C93.4796 32.54 94.0662 32.44 94.5729 32.24C95.0796 32.0267 95.5129 31.7267 95.8729 31.34L98.2729 33.74C97.5796 34.3667 96.7929 34.8533 95.9129 35.2C95.0462 35.5467 94.0262 35.72 92.8529 35.72ZM102.661 29.76V27.2H105.361C105.947 27.2 106.394 27.06 106.701 26.78C107.021 26.4867 107.181 26.0933 107.181 25.6C107.181 25.12 107.021 24.7333 106.701 24.44C106.394 24.1333 105.947 23.98 105.361 23.98H102.661V21.32H105.861C106.821 21.32 107.661 21.5 108.381 21.86C109.114 22.22 109.687 22.7133 110.101 23.34C110.514 23.9667 110.721 24.7 110.721 25.54C110.721 26.38 110.507 27.12 110.081 27.76C109.667 28.3867 109.087 28.88 108.341 29.24C107.594 29.5867 106.721 29.76 105.721 29.76H102.661ZM99.8205 35.5V21.32H103.401V35.5H99.8205ZM107.501 35.5L103.381 29.42L106.601 28.64L111.641 35.5H107.501ZM119.689 35.76C118.596 35.76 117.589 35.5733 116.669 35.2C115.749 34.8267 114.943 34.3067 114.249 33.64C113.569 32.9733 113.036 32.1933 112.649 31.3C112.263 30.3933 112.069 29.42 112.069 28.38C112.069 27.34 112.256 26.38 112.629 25.5C113.016 24.6067 113.549 23.8267 114.229 23.16C114.909 22.4933 115.709 21.98 116.629 21.62C117.549 21.2467 118.556 21.06 119.649 21.06C120.743 21.06 121.749 21.2467 122.669 21.62C123.589 21.98 124.389 22.4933 125.069 23.16C125.749 23.8267 126.276 24.6067 126.649 25.5C127.036 26.3933 127.229 27.36 127.229 28.4C127.229 29.44 127.036 30.4067 126.649 31.3C126.276 32.1933 125.749 32.98 125.069 33.66C124.389 34.3267 123.589 34.8467 122.669 35.22C121.763 35.58 120.769 35.76 119.689 35.76ZM119.649 32.56C120.449 32.56 121.143 32.3867 121.729 32.04C122.316 31.6933 122.769 31.2067 123.089 30.58C123.409 29.9533 123.569 29.22 123.569 28.38C123.569 27.7667 123.476 27.2067 123.289 26.7C123.116 26.1933 122.856 25.76 122.509 25.4C122.163 25.0267 121.749 24.74 121.269 24.54C120.789 24.34 120.249 24.24 119.649 24.24C118.849 24.24 118.156 24.4133 117.569 24.76C116.983 25.0933 116.529 25.5733 116.209 26.2C115.889 26.8267 115.729 27.5533 115.729 28.38C115.729 29.02 115.816 29.6 115.989 30.12C116.176 30.6267 116.443 31.0667 116.789 31.44C117.136 31.8 117.549 32.08 118.029 32.28C118.509 32.4667 119.049 32.56 119.649 32.56ZM132.031 35.5L127.531 21.32H131.071L134.311 32.24H132.771L135.971 21.32H138.831L142.031 32.24H140.511L143.751 21.32H147.271L142.751 35.5H139.871L136.671 24.6H138.111L134.931 35.5H132.031Z" fill="#155DFC"/>
<path d="M67.0977 52.66C66.2764 52.66 65.5137 52.516 64.8097 52.228C64.1057 51.9293 63.487 51.5187 62.9537 50.996C62.431 50.4627 62.0257 49.844 61.7377 49.14C61.4604 48.436 61.3217 47.6787 61.3217 46.868C61.3217 46.0573 61.4604 45.3 61.7377 44.596C62.0257 43.892 62.431 43.2787 62.9537 42.756C63.487 42.2333 64.1004 41.8227 64.7937 41.524C65.4977 41.2253 66.2657 41.076 67.0977 41.076C67.9937 41.076 68.783 41.2253 69.4657 41.524C70.1484 41.812 70.751 42.212 71.2737 42.724L69.8017 44.196C69.4924 43.8547 69.1137 43.588 68.6657 43.396C68.2177 43.204 67.695 43.108 67.0977 43.108C66.575 43.108 66.095 43.1987 65.6577 43.38C65.231 43.5507 64.8577 43.8067 64.5377 44.148C64.2177 44.4787 63.9724 44.8787 63.8017 45.348C63.631 45.8067 63.5457 46.3133 63.5457 46.868C63.5457 47.4333 63.631 47.9453 63.8017 48.404C63.9724 48.8627 64.2177 49.2627 64.5377 49.604C64.8577 49.9347 65.231 50.1907 65.6577 50.372C66.095 50.5533 66.575 50.644 67.0977 50.644C67.727 50.644 68.2657 50.548 68.7137 50.356C69.1724 50.164 69.5564 49.892 69.8657 49.54L71.3377 51.012C70.815 51.5347 70.207 51.94 69.5137 52.228C68.8204 52.516 68.015 52.66 67.0977 52.66ZM75.2504 52.5V41.252H77.4264V52.5H75.2504ZM76.8504 52.5V50.58H83.0744V52.5H76.8504ZM76.8504 47.684V45.828H82.5144V47.684H76.8504ZM76.8504 43.172V41.252H82.9944V43.172H76.8504ZM87.2754 52.5V41.252H88.7954L89.4514 43.428V52.5H87.2754ZM95.0514 52.5L88.3794 43.86L88.7954 41.252L95.4674 49.892L95.0514 52.5ZM95.0514 52.5L94.4274 50.388V41.252H96.6194V52.5H95.0514ZM104.084 52.5V41.492H106.276V52.5H104.084ZM100.5 43.188V41.252H109.86V43.188H100.5ZM115.363 47.796V46.1H117.971C118.504 46.1 118.915 45.9667 119.203 45.7C119.502 45.4227 119.651 45.044 119.651 44.564C119.651 44.1267 119.502 43.764 119.203 43.476C118.915 43.1773 118.504 43.028 117.971 43.028H115.363V41.252H118.163C118.888 41.252 119.523 41.396 120.067 41.684C120.622 41.9613 121.048 42.3453 121.347 42.836C121.656 43.3267 121.811 43.892 121.811 44.532C121.811 45.1933 121.656 45.7693 121.347 46.26C121.048 46.74 120.622 47.1187 120.067 47.396C119.512 47.6627 118.867 47.796 118.131 47.796H115.363ZM113.763 52.5V41.252H115.939V52.5H113.763ZM119.907 52.5L116.195 47.636L118.195 47.012L122.547 52.5H119.907ZM124.987 52.5L129.515 41.252H131.291L135.803 52.5H133.483L129.995 43.268H130.795L127.259 52.5H124.987ZM127.387 50.404V48.58H133.435V50.404H127.387ZM139.532 52.5V41.252H141.708V52.5H139.532ZM141.132 52.5V50.564H146.86V52.5H141.132Z" fill="#155DFC"/>
</svg>
